# xmcd
#
# Track frame offsets:
#	150
#	23330
#	34267
#	55455
#	73840
#	106095
#	144115
#	162812
#	184972
#	195710
#	208465
#	231610
#	253847
#	264397
#	281150
#
# Disc length: 4021 seconds
#
# Revision: 1
# Processed by: cddbd v1.4PL0 Copyright (c) Steve Scherf et al.
# Submitted via: CDmax 1.9
#
DISCID=e50fb30f
DTITLE=David Grisman and Various - Acoustic Disc Volume VI
DYEAR=2002
DGENRE=Bluegrass
TTITLE0=Man of Constant Sorrow
TTITLE1=Moonlight Bay
TTITLE2=Tears
TTITLE3=The Ranger's Command
TTITLE4=Brazilian Street Dance
TTITLE5=God Rest Ye Merry, Gentlemen
TTITLE6=Costumi Siciliani
TTITLE7=Amazing Grace
TTITLE8=New Steal
TTITLE9=Limehouse Blues
TTITLE10=My Live Is In Your Hands
TTITLE11=Fourteen Miles to Barstow
TTITLE12=Oh, Mio Babbino Caro
TTITLE13=I'm Troubled
TTITLE14=Anniversary Waltz
EXTD=
EXTT0=
EXTT1=
EXTT2=
EXTT3=
EXTT4=
EXTT5=
EXTT6=
EXTT7=
EXTT8=
EXTT9=
EXTT10=
EXTT11=
EXTT12=
EXTT13=
EXTT14=
PLAYORDER=
